<mxfile host="app.diagrams.net" modified="2020-10-27T12:39:33.024Z" agent="5.0 (Windows NT 10.0; Win64; x64) AppleWebKit/537.36 (KHTML, like Gecko) Chrome/86.0.4240.75 Safari/537.36" etag="1o-LcwATd76Erkis4KRC" version="13.8.3" type="github">
  <diagram id="5_lmvbP1PZn3JAL1RZH7" name="第 1 页">
    <mxGraphModel dx="782" dy="515" grid="0" gridSize="10" guides="1" tooltips="1" connect="1" arrows="1" fold="1" page="1" pageScale="1" pageWidth="827" pageHeight="1169" math="0" shadow="0">
      <root>
        <mxCell id="0" />
        <mxCell id="1" parent="0" />
        <mxCell id="q3nNFvrmssY_wy4M-QBo-84" value="" style="verticalLabelPosition=bottom;verticalAlign=top;html=1;shape=mxgraph.basic.rect;fillColor2=none;strokeWidth=1;size=20;indent=5;" vertex="1" parent="1">
          <mxGeometry x="63.08" y="160" width="127.97" height="233.63" as="geometry" />
        </mxCell>
        <mxCell id="q3nNFvrmssY_wy4M-QBo-35" value="" style="verticalLabelPosition=bottom;verticalAlign=top;html=1;shape=mxgraph.basic.rect;fillColor2=none;strokeWidth=1;size=20;indent=5;" vertex="1" parent="1">
          <mxGeometry x="575.11" y="553.5" width="140.91" height="96.5" as="geometry" />
        </mxCell>
        <mxCell id="q3nNFvrmssY_wy4M-QBo-30" value="" style="verticalLabelPosition=bottom;verticalAlign=top;html=1;shape=mxgraph.basic.rect;fillColor2=none;strokeWidth=1;size=20;indent=5;" vertex="1" parent="1">
          <mxGeometry x="191.05" y="685.38" width="118.95" height="137.25" as="geometry" />
        </mxCell>
        <mxCell id="q3nNFvrmssY_wy4M-QBo-29" value="" style="verticalLabelPosition=bottom;verticalAlign=top;html=1;shape=mxgraph.basic.rect;fillColor2=none;strokeWidth=1;size=20;indent=5;" vertex="1" parent="1">
          <mxGeometry x="52.03" y="685.38" width="118.95" height="137.25" as="geometry" />
        </mxCell>
        <mxCell id="q3nNFvrmssY_wy4M-QBo-28" value="" style="verticalLabelPosition=bottom;verticalAlign=top;html=1;shape=mxgraph.basic.rect;fillColor2=none;strokeWidth=1;size=20;indent=5;" vertex="1" parent="1">
          <mxGeometry x="539.11" y="711.5" width="140.91" height="96.5" as="geometry" />
        </mxCell>
        <mxCell id="q3nNFvrmssY_wy4M-QBo-27" value="" style="verticalLabelPosition=bottom;verticalAlign=top;html=1;shape=mxgraph.basic.rect;fillColor2=none;strokeWidth=1;size=20;indent=5;" vertex="1" parent="1">
          <mxGeometry x="346" y="722" width="140.91" height="96.5" as="geometry" />
        </mxCell>
        <mxCell id="q3nNFvrmssY_wy4M-QBo-64" style="edgeStyle=none;rounded=0;orthogonalLoop=1;jettySize=auto;html=1;exitX=0.5;exitY=1;exitDx=0;exitDy=0;exitPerimeter=0;entryX=0.5;entryY=0;entryDx=0;entryDy=0;entryPerimeter=0;endArrow=none;endFill=0;" edge="1" parent="1" source="q3nNFvrmssY_wy4M-QBo-1" target="q3nNFvrmssY_wy4M-QBo-4">
          <mxGeometry relative="1" as="geometry" />
        </mxCell>
        <mxCell id="q3nNFvrmssY_wy4M-QBo-71" style="edgeStyle=none;rounded=0;orthogonalLoop=1;jettySize=auto;html=1;exitX=0.5;exitY=1;exitDx=0;exitDy=0;exitPerimeter=0;entryX=0.5;entryY=0;entryDx=0;entryDy=0;entryPerimeter=0;endArrow=none;endFill=0;" edge="1" parent="1" source="q3nNFvrmssY_wy4M-QBo-1" target="q3nNFvrmssY_wy4M-QBo-5">
          <mxGeometry relative="1" as="geometry" />
        </mxCell>
        <mxCell id="q3nNFvrmssY_wy4M-QBo-1" value="" style="shape=mxgraph.cisco.security.firewall;html=1;pointerEvents=1;dashed=0;fillColor=#036897;strokeColor=#ffffff;strokeWidth=2;verticalLabelPosition=bottom;verticalAlign=top;align=center;outlineConnect=0;" vertex="1" parent="1">
          <mxGeometry x="310" y="280" width="29" height="67" as="geometry" />
        </mxCell>
        <mxCell id="q3nNFvrmssY_wy4M-QBo-66" style="edgeStyle=none;rounded=0;orthogonalLoop=1;jettySize=auto;html=1;exitX=0.5;exitY=1;exitDx=0;exitDy=0;exitPerimeter=0;entryX=0.5;entryY=0;entryDx=0;entryDy=0;entryPerimeter=0;endArrow=none;endFill=0;" edge="1" parent="1" source="q3nNFvrmssY_wy4M-QBo-2" target="q3nNFvrmssY_wy4M-QBo-5">
          <mxGeometry relative="1" as="geometry" />
        </mxCell>
        <mxCell id="q3nNFvrmssY_wy4M-QBo-72" style="edgeStyle=none;rounded=0;orthogonalLoop=1;jettySize=auto;html=1;exitX=0.5;exitY=1;exitDx=0;exitDy=0;exitPerimeter=0;entryX=0.5;entryY=0;entryDx=0;entryDy=0;entryPerimeter=0;endArrow=none;endFill=0;" edge="1" parent="1" source="q3nNFvrmssY_wy4M-QBo-2" target="q3nNFvrmssY_wy4M-QBo-4">
          <mxGeometry relative="1" as="geometry" />
        </mxCell>
        <mxCell id="q3nNFvrmssY_wy4M-QBo-2" value="" style="shape=mxgraph.cisco.security.firewall;html=1;pointerEvents=1;dashed=0;fillColor=#036897;strokeColor=#ffffff;strokeWidth=2;verticalLabelPosition=bottom;verticalAlign=top;align=center;outlineConnect=0;" vertex="1" parent="1">
          <mxGeometry x="390" y="280" width="29" height="67" as="geometry" />
        </mxCell>
        <mxCell id="q3nNFvrmssY_wy4M-QBo-73" style="edgeStyle=none;rounded=0;orthogonalLoop=1;jettySize=auto;html=1;exitX=0.5;exitY=1;exitDx=0;exitDy=0;exitPerimeter=0;entryX=0.5;entryY=0;entryDx=0;entryDy=0;entryPerimeter=0;endArrow=none;endFill=0;" edge="1" parent="1" source="q3nNFvrmssY_wy4M-QBo-3" target="q3nNFvrmssY_wy4M-QBo-1">
          <mxGeometry relative="1" as="geometry" />
        </mxCell>
        <mxCell id="q3nNFvrmssY_wy4M-QBo-74" style="edgeStyle=none;rounded=0;orthogonalLoop=1;jettySize=auto;html=1;exitX=0.5;exitY=1;exitDx=0;exitDy=0;exitPerimeter=0;entryX=0.5;entryY=0;entryDx=0;entryDy=0;entryPerimeter=0;endArrow=none;endFill=0;" edge="1" parent="1" source="q3nNFvrmssY_wy4M-QBo-3" target="q3nNFvrmssY_wy4M-QBo-2">
          <mxGeometry relative="1" as="geometry" />
        </mxCell>
        <mxCell id="q3nNFvrmssY_wy4M-QBo-3" value="" style="shape=mxgraph.cisco.routers.router;html=1;pointerEvents=1;dashed=0;fillColor=#036897;strokeColor=#ffffff;strokeWidth=2;verticalLabelPosition=bottom;verticalAlign=top;align=center;outlineConnect=0;" vertex="1" parent="1">
          <mxGeometry x="336" y="190" width="78" height="53" as="geometry" />
        </mxCell>
        <mxCell id="q3nNFvrmssY_wy4M-QBo-67" style="edgeStyle=none;rounded=0;orthogonalLoop=1;jettySize=auto;html=1;exitX=0.5;exitY=1;exitDx=0;exitDy=0;exitPerimeter=0;entryX=0.5;entryY=0;entryDx=0;entryDy=0;entryPerimeter=0;endArrow=none;endFill=0;" edge="1" parent="1" source="q3nNFvrmssY_wy4M-QBo-4" target="q3nNFvrmssY_wy4M-QBo-7">
          <mxGeometry relative="1" as="geometry" />
        </mxCell>
        <mxCell id="q3nNFvrmssY_wy4M-QBo-70" style="edgeStyle=none;rounded=0;orthogonalLoop=1;jettySize=auto;html=1;exitX=0.5;exitY=1;exitDx=0;exitDy=0;exitPerimeter=0;entryX=0.5;entryY=0;entryDx=0;entryDy=0;entryPerimeter=0;endArrow=none;endFill=0;" edge="1" parent="1" source="q3nNFvrmssY_wy4M-QBo-4" target="q3nNFvrmssY_wy4M-QBo-6">
          <mxGeometry relative="1" as="geometry" />
        </mxCell>
        <mxCell id="q3nNFvrmssY_wy4M-QBo-4" value="" style="shape=mxgraph.cisco.security.ios_firewall;html=1;pointerEvents=1;dashed=0;fillColor=#036897;strokeColor=#ffffff;strokeWidth=2;verticalLabelPosition=bottom;verticalAlign=top;align=center;outlineConnect=0;" vertex="1" parent="1">
          <mxGeometry x="304.5" y="370" width="40" height="66" as="geometry" />
        </mxCell>
        <mxCell id="q3nNFvrmssY_wy4M-QBo-68" style="edgeStyle=none;rounded=0;orthogonalLoop=1;jettySize=auto;html=1;exitX=0.5;exitY=1;exitDx=0;exitDy=0;exitPerimeter=0;entryX=0.5;entryY=0;entryDx=0;entryDy=0;entryPerimeter=0;endArrow=none;endFill=0;" edge="1" parent="1" source="q3nNFvrmssY_wy4M-QBo-5" target="q3nNFvrmssY_wy4M-QBo-6">
          <mxGeometry relative="1" as="geometry" />
        </mxCell>
        <mxCell id="q3nNFvrmssY_wy4M-QBo-69" style="edgeStyle=none;rounded=0;orthogonalLoop=1;jettySize=auto;html=1;exitX=0.5;exitY=1;exitDx=0;exitDy=0;exitPerimeter=0;entryX=0.5;entryY=0;entryDx=0;entryDy=0;entryPerimeter=0;endArrow=none;endFill=0;" edge="1" parent="1" source="q3nNFvrmssY_wy4M-QBo-5" target="q3nNFvrmssY_wy4M-QBo-7">
          <mxGeometry relative="1" as="geometry" />
        </mxCell>
        <mxCell id="q3nNFvrmssY_wy4M-QBo-5" value="" style="shape=mxgraph.cisco.security.ios_firewall;html=1;pointerEvents=1;dashed=0;fillColor=#036897;strokeColor=#ffffff;strokeWidth=2;verticalLabelPosition=bottom;verticalAlign=top;align=center;outlineConnect=0;" vertex="1" parent="1">
          <mxGeometry x="390" y="370" width="40" height="66" as="geometry" />
        </mxCell>
        <mxCell id="q3nNFvrmssY_wy4M-QBo-44" style="edgeStyle=none;rounded=0;orthogonalLoop=1;jettySize=auto;html=1;exitX=0.5;exitY=1;exitDx=0;exitDy=0;exitPerimeter=0;entryX=0.503;entryY=0.005;entryDx=0;entryDy=0;entryPerimeter=0;" edge="1" parent="1" source="q3nNFvrmssY_wy4M-QBo-6" target="q3nNFvrmssY_wy4M-QBo-28">
          <mxGeometry relative="1" as="geometry" />
        </mxCell>
        <mxCell id="q3nNFvrmssY_wy4M-QBo-46" style="edgeStyle=none;rounded=0;orthogonalLoop=1;jettySize=auto;html=1;exitX=0.5;exitY=1;exitDx=0;exitDy=0;exitPerimeter=0;" edge="1" parent="1" source="q3nNFvrmssY_wy4M-QBo-6">
          <mxGeometry relative="1" as="geometry">
            <mxPoint x="414" y="720" as="targetPoint" />
          </mxGeometry>
        </mxCell>
        <mxCell id="q3nNFvrmssY_wy4M-QBo-47" style="edgeStyle=none;rounded=0;orthogonalLoop=1;jettySize=auto;html=1;exitX=0.5;exitY=1;exitDx=0;exitDy=0;exitPerimeter=0;entryX=-0.015;entryY=0.492;entryDx=0;entryDy=0;entryPerimeter=0;" edge="1" parent="1" source="q3nNFvrmssY_wy4M-QBo-6" target="q3nNFvrmssY_wy4M-QBo-35">
          <mxGeometry relative="1" as="geometry" />
        </mxCell>
        <mxCell id="q3nNFvrmssY_wy4M-QBo-50" style="edgeStyle=none;rounded=0;orthogonalLoop=1;jettySize=auto;html=1;exitX=0.5;exitY=1;exitDx=0;exitDy=0;exitPerimeter=0;entryX=0.5;entryY=0;entryDx=0;entryDy=0;entryPerimeter=0;" edge="1" parent="1" source="q3nNFvrmssY_wy4M-QBo-6" target="q3nNFvrmssY_wy4M-QBo-8">
          <mxGeometry relative="1" as="geometry" />
        </mxCell>
        <mxCell id="q3nNFvrmssY_wy4M-QBo-51" style="edgeStyle=none;rounded=0;orthogonalLoop=1;jettySize=auto;html=1;exitX=1;exitY=0.5;exitDx=0;exitDy=0;exitPerimeter=0;entryX=0;entryY=0.5;entryDx=0;entryDy=0;entryPerimeter=0;" edge="1" parent="1" source="q3nNFvrmssY_wy4M-QBo-6" target="q3nNFvrmssY_wy4M-QBo-18">
          <mxGeometry relative="1" as="geometry" />
        </mxCell>
        <mxCell id="q3nNFvrmssY_wy4M-QBo-6" value="" style="shape=mxgraph.cisco.switches.atm_fast_gigabit_etherswitch;html=1;pointerEvents=1;dashed=0;fillColor=#036897;strokeColor=#ffffff;strokeWidth=2;verticalLabelPosition=bottom;verticalAlign=top;align=center;outlineConnect=0;" vertex="1" parent="1">
          <mxGeometry x="382" y="460" width="64" height="64" as="geometry" />
        </mxCell>
        <mxCell id="q3nNFvrmssY_wy4M-QBo-43" style="edgeStyle=none;rounded=0;orthogonalLoop=1;jettySize=auto;html=1;entryX=0.497;entryY=-0.031;entryDx=0;entryDy=0;entryPerimeter=0;" edge="1" parent="1" target="q3nNFvrmssY_wy4M-QBo-27">
          <mxGeometry relative="1" as="geometry">
            <mxPoint x="322" y="524" as="sourcePoint" />
          </mxGeometry>
        </mxCell>
        <mxCell id="q3nNFvrmssY_wy4M-QBo-45" style="edgeStyle=none;rounded=0;orthogonalLoop=1;jettySize=auto;html=1;exitX=0.5;exitY=1;exitDx=0;exitDy=0;exitPerimeter=0;entryX=0.489;entryY=0.005;entryDx=0;entryDy=0;entryPerimeter=0;" edge="1" parent="1" source="q3nNFvrmssY_wy4M-QBo-7" target="q3nNFvrmssY_wy4M-QBo-28">
          <mxGeometry relative="1" as="geometry" />
        </mxCell>
        <mxCell id="q3nNFvrmssY_wy4M-QBo-48" style="edgeStyle=none;rounded=0;orthogonalLoop=1;jettySize=auto;html=1;exitX=0.5;exitY=1;exitDx=0;exitDy=0;exitPerimeter=0;entryX=-0.008;entryY=0.503;entryDx=0;entryDy=0;entryPerimeter=0;" edge="1" parent="1" source="q3nNFvrmssY_wy4M-QBo-7" target="q3nNFvrmssY_wy4M-QBo-35">
          <mxGeometry relative="1" as="geometry" />
        </mxCell>
        <mxCell id="q3nNFvrmssY_wy4M-QBo-49" style="edgeStyle=none;rounded=0;orthogonalLoop=1;jettySize=auto;html=1;exitX=0.5;exitY=1;exitDx=0;exitDy=0;exitPerimeter=0;entryX=0.5;entryY=0;entryDx=0;entryDy=0;entryPerimeter=0;" edge="1" parent="1" source="q3nNFvrmssY_wy4M-QBo-7" target="q3nNFvrmssY_wy4M-QBo-8">
          <mxGeometry relative="1" as="geometry" />
        </mxCell>
        <mxCell id="q3nNFvrmssY_wy4M-QBo-7" value="" style="shape=mxgraph.cisco.switches.atm_fast_gigabit_etherswitch;html=1;pointerEvents=1;dashed=0;fillColor=#036897;strokeColor=#ffffff;strokeWidth=2;verticalLabelPosition=bottom;verticalAlign=top;align=center;outlineConnect=0;" vertex="1" parent="1">
          <mxGeometry x="290" y="460" width="64" height="64" as="geometry" />
        </mxCell>
        <mxCell id="q3nNFvrmssY_wy4M-QBo-38" value="" style="edgeStyle=orthogonalEdgeStyle;rounded=0;orthogonalLoop=1;jettySize=auto;html=1;entryX=0.479;entryY=0.005;entryDx=0;entryDy=0;entryPerimeter=0;exitX=1;exitY=0.5;exitDx=0;exitDy=0;exitPerimeter=0;" edge="1" parent="1" source="q3nNFvrmssY_wy4M-QBo-8" target="q3nNFvrmssY_wy4M-QBo-30">
          <mxGeometry relative="1" as="geometry" />
        </mxCell>
        <mxCell id="q3nNFvrmssY_wy4M-QBo-39" value="" style="edgeStyle=orthogonalEdgeStyle;rounded=0;orthogonalLoop=1;jettySize=auto;html=1;entryX=0.513;entryY=-0.01;entryDx=0;entryDy=0;entryPerimeter=0;exitX=0;exitY=0.5;exitDx=0;exitDy=0;exitPerimeter=0;" edge="1" parent="1" source="q3nNFvrmssY_wy4M-QBo-8" target="q3nNFvrmssY_wy4M-QBo-29">
          <mxGeometry relative="1" as="geometry" />
        </mxCell>
        <mxCell id="q3nNFvrmssY_wy4M-QBo-8" value="" style="shape=mxgraph.cisco.security.firewall;html=1;pointerEvents=1;dashed=0;fillColor=#036897;strokeColor=#ffffff;strokeWidth=2;verticalLabelPosition=bottom;verticalAlign=top;align=center;outlineConnect=0;" vertex="1" parent="1">
          <mxGeometry x="170" y="583" width="29" height="67" as="geometry" />
        </mxCell>
        <mxCell id="q3nNFvrmssY_wy4M-QBo-9" value="" style="shape=mxgraph.cisco.security.firewall;html=1;pointerEvents=1;dashed=0;fillColor=#036897;strokeColor=#ffffff;strokeWidth=2;verticalLabelPosition=bottom;verticalAlign=top;align=center;outlineConnect=0;" vertex="1" parent="1">
          <mxGeometry x="153.67000000000002" y="180" width="17.31" height="40" as="geometry" />
        </mxCell>
        <mxCell id="q3nNFvrmssY_wy4M-QBo-10" value="" style="shape=mxgraph.cisco.servers.fileserver;html=1;pointerEvents=1;dashed=0;fillColor=#036897;strokeColor=#ffffff;strokeWidth=2;verticalLabelPosition=bottom;verticalAlign=top;align=center;outlineConnect=0;" vertex="1" parent="1">
          <mxGeometry x="80" y="693" width="43" height="62" as="geometry" />
        </mxCell>
        <mxCell id="q3nNFvrmssY_wy4M-QBo-11" value="" style="shape=mxgraph.cisco.servers.fileserver;html=1;pointerEvents=1;dashed=0;fillColor=#036897;strokeColor=#ffffff;strokeWidth=2;verticalLabelPosition=bottom;verticalAlign=top;align=center;outlineConnect=0;" vertex="1" parent="1">
          <mxGeometry x="90" y="703" width="43" height="62" as="geometry" />
        </mxCell>
        <mxCell id="q3nNFvrmssY_wy4M-QBo-12" value="" style="shape=mxgraph.cisco.servers.fileserver;html=1;pointerEvents=1;dashed=0;fillColor=#036897;strokeColor=#ffffff;strokeWidth=2;verticalLabelPosition=bottom;verticalAlign=top;align=center;outlineConnect=0;" vertex="1" parent="1">
          <mxGeometry x="100" y="713" width="43" height="62" as="geometry" />
        </mxCell>
        <mxCell id="q3nNFvrmssY_wy4M-QBo-13" value="" style="shape=mxgraph.cisco.servers.fileserver;html=1;pointerEvents=1;dashed=0;fillColor=#036897;strokeColor=#ffffff;strokeWidth=2;verticalLabelPosition=bottom;verticalAlign=top;align=center;outlineConnect=0;" vertex="1" parent="1">
          <mxGeometry x="110" y="723" width="43" height="62" as="geometry" />
        </mxCell>
        <mxCell id="q3nNFvrmssY_wy4M-QBo-14" value="" style="shape=mxgraph.cisco.servers.fileserver;html=1;pointerEvents=1;dashed=0;fillColor=#036897;strokeColor=#ffffff;strokeWidth=2;verticalLabelPosition=bottom;verticalAlign=top;align=center;outlineConnect=0;" vertex="1" parent="1">
          <mxGeometry x="217" y="693" width="43" height="62" as="geometry" />
        </mxCell>
        <mxCell id="q3nNFvrmssY_wy4M-QBo-15" value="" style="shape=mxgraph.cisco.servers.fileserver;html=1;pointerEvents=1;dashed=0;fillColor=#036897;strokeColor=#ffffff;strokeWidth=2;verticalLabelPosition=bottom;verticalAlign=top;align=center;outlineConnect=0;" vertex="1" parent="1">
          <mxGeometry x="227" y="703" width="43" height="62" as="geometry" />
        </mxCell>
        <mxCell id="q3nNFvrmssY_wy4M-QBo-16" value="" style="shape=mxgraph.cisco.servers.fileserver;html=1;pointerEvents=1;dashed=0;fillColor=#036897;strokeColor=#ffffff;strokeWidth=2;verticalLabelPosition=bottom;verticalAlign=top;align=center;outlineConnect=0;" vertex="1" parent="1">
          <mxGeometry x="237" y="713" width="43" height="62" as="geometry" />
        </mxCell>
        <mxCell id="q3nNFvrmssY_wy4M-QBo-17" value="" style="shape=mxgraph.cisco.servers.fileserver;html=1;pointerEvents=1;dashed=0;fillColor=#036897;strokeColor=#ffffff;strokeWidth=2;verticalLabelPosition=bottom;verticalAlign=top;align=center;outlineConnect=0;" vertex="1" parent="1">
          <mxGeometry x="247" y="723" width="43" height="62" as="geometry" />
        </mxCell>
        <mxCell id="q3nNFvrmssY_wy4M-QBo-18" value="" style="shape=mxgraph.cisco.wireless.wlan_controller;html=1;pointerEvents=1;dashed=0;fillColor=#036897;strokeColor=#ffffff;strokeWidth=2;verticalLabelPosition=bottom;verticalAlign=top;align=center;outlineConnect=0;" vertex="1" parent="1">
          <mxGeometry x="570" y="464" width="101" height="56" as="geometry" />
        </mxCell>
        <mxCell id="q3nNFvrmssY_wy4M-QBo-19" value="" style="shape=mxgraph.cisco.people.pc_man;html=1;pointerEvents=1;dashed=0;fillColor=#036897;strokeColor=#ffffff;strokeWidth=2;verticalLabelPosition=bottom;verticalAlign=top;align=center;outlineConnect=0;" vertex="1" parent="1">
          <mxGeometry x="356" y="728.5" width="39.09" height="56" as="geometry" />
        </mxCell>
        <mxCell id="q3nNFvrmssY_wy4M-QBo-21" value="" style="shape=mxgraph.cisco.people.pc_man;html=1;pointerEvents=1;dashed=0;fillColor=#036897;strokeColor=#ffffff;strokeWidth=2;verticalLabelPosition=bottom;verticalAlign=top;align=center;outlineConnect=0;" vertex="1" parent="1">
          <mxGeometry x="396.91" y="728.5" width="39.09" height="56" as="geometry" />
        </mxCell>
        <mxCell id="q3nNFvrmssY_wy4M-QBo-22" value="" style="shape=mxgraph.cisco.people.pc_man;html=1;pointerEvents=1;dashed=0;fillColor=#036897;strokeColor=#ffffff;strokeWidth=2;verticalLabelPosition=bottom;verticalAlign=top;align=center;outlineConnect=0;" vertex="1" parent="1">
          <mxGeometry x="436" y="728.5" width="39.09" height="56" as="geometry" />
        </mxCell>
        <mxCell id="q3nNFvrmssY_wy4M-QBo-24" value="" style="shape=mxgraph.cisco.people.androgenous_person;html=1;pointerEvents=1;dashed=0;fillColor=#036897;strokeColor=#ffffff;strokeWidth=2;verticalLabelPosition=bottom;verticalAlign=top;align=center;outlineConnect=0;" vertex="1" parent="1">
          <mxGeometry x="554" y="723" width="31.13" height="37" as="geometry" />
        </mxCell>
        <mxCell id="q3nNFvrmssY_wy4M-QBo-25" value="" style="shape=mxgraph.cisco.people.androgenous_person;html=1;pointerEvents=1;dashed=0;fillColor=#036897;strokeColor=#ffffff;strokeWidth=2;verticalLabelPosition=bottom;verticalAlign=top;align=center;outlineConnect=0;" vertex="1" parent="1">
          <mxGeometry x="594" y="723" width="31.13" height="37" as="geometry" />
        </mxCell>
        <mxCell id="q3nNFvrmssY_wy4M-QBo-26" value="" style="shape=mxgraph.cisco.people.androgenous_person;html=1;pointerEvents=1;dashed=0;fillColor=#036897;strokeColor=#ffffff;strokeWidth=2;verticalLabelPosition=bottom;verticalAlign=top;align=center;outlineConnect=0;" vertex="1" parent="1">
          <mxGeometry x="634" y="723" width="31.13" height="37" as="geometry" />
        </mxCell>
        <mxCell id="q3nNFvrmssY_wy4M-QBo-31" value="" style="shape=mxgraph.cisco.people.sitting_woman;html=1;pointerEvents=1;dashed=0;fillColor=#036897;strokeColor=#ffffff;strokeWidth=2;verticalLabelPosition=bottom;verticalAlign=top;align=center;outlineConnect=0;" vertex="1" parent="1">
          <mxGeometry x="589.1" y="570" width="31.11" height="50" as="geometry" />
        </mxCell>
        <mxCell id="q3nNFvrmssY_wy4M-QBo-32" value="" style="shape=mxgraph.cisco.people.sitting_woman;html=1;pointerEvents=1;dashed=0;fillColor=#036897;strokeColor=#ffffff;strokeWidth=2;verticalLabelPosition=bottom;verticalAlign=top;align=center;outlineConnect=0;" vertex="1" parent="1">
          <mxGeometry x="630.01" y="570" width="31.11" height="50" as="geometry" />
        </mxCell>
        <mxCell id="q3nNFvrmssY_wy4M-QBo-33" value="" style="shape=mxgraph.cisco.people.sitting_woman;html=1;pointerEvents=1;dashed=0;fillColor=#036897;strokeColor=#ffffff;strokeWidth=2;verticalLabelPosition=bottom;verticalAlign=top;align=center;outlineConnect=0;" vertex="1" parent="1">
          <mxGeometry x="664.96" y="570" width="31.11" height="50" as="geometry" />
        </mxCell>
        <mxCell id="q3nNFvrmssY_wy4M-QBo-60" value="" style="shape=link;html=1;entryX=0;entryY=0.5;entryDx=0;entryDy=0;entryPerimeter=0;" edge="1" parent="1" target="q3nNFvrmssY_wy4M-QBo-2">
          <mxGeometry width="100" relative="1" as="geometry">
            <mxPoint x="336" y="313" as="sourcePoint" />
            <mxPoint x="374.5" y="313" as="targetPoint" />
          </mxGeometry>
        </mxCell>
        <mxCell id="q3nNFvrmssY_wy4M-QBo-61" value="" style="shape=link;html=1;" edge="1" parent="1">
          <mxGeometry width="100" relative="1" as="geometry">
            <mxPoint x="345.5" y="491.5" as="sourcePoint" />
            <mxPoint x="382" y="491.5" as="targetPoint" />
          </mxGeometry>
        </mxCell>
        <mxCell id="q3nNFvrmssY_wy4M-QBo-62" value="" style="shape=link;html=1;entryX=0;entryY=0.5;entryDx=0;entryDy=0;entryPerimeter=0;" edge="1" parent="1" target="q3nNFvrmssY_wy4M-QBo-5">
          <mxGeometry width="100" relative="1" as="geometry">
            <mxPoint x="339" y="402.5" as="sourcePoint" />
            <mxPoint x="377.5" y="402.5" as="targetPoint" />
          </mxGeometry>
        </mxCell>
        <mxCell id="q3nNFvrmssY_wy4M-QBo-75" value="" style="html=1;outlineConnect=0;fillColor=#CCCCCC;strokeColor=#6881B3;gradientColor=none;gradientDirection=north;strokeWidth=2;shape=mxgraph.networks.cloud;fontColor=#ffffff;" vertex="1" parent="1">
          <mxGeometry x="436" y="100" width="90" height="50" as="geometry" />
        </mxCell>
        <mxCell id="q3nNFvrmssY_wy4M-QBo-76" value="" style="html=1;outlineConnect=0;fillColor=#CCCCCC;strokeColor=#6881B3;gradientColor=none;gradientDirection=north;strokeWidth=2;shape=mxgraph.networks.comm_link_edge;html=1;endArrow=none;endFill=0;entryX=0.5;entryY=1;entryDx=0;entryDy=0;entryPerimeter=0;" edge="1" parent="1" target="q3nNFvrmssY_wy4M-QBo-75">
          <mxGeometry width="100" height="100" relative="1" as="geometry">
            <mxPoint x="382" y="200" as="sourcePoint" />
            <mxPoint x="482" y="100" as="targetPoint" />
            <Array as="points">
              <mxPoint x="462" y="170" />
            </Array>
          </mxGeometry>
        </mxCell>
        <mxCell id="q3nNFvrmssY_wy4M-QBo-77" value="" style="fontColor=#0066CC;verticalAlign=top;verticalLabelPosition=bottom;labelPosition=center;align=center;html=1;outlineConnect=0;fillColor=#CCCCCC;strokeColor=#6881B3;gradientColor=none;gradientDirection=north;strokeWidth=2;shape=mxgraph.networks.community;" vertex="1" parent="1">
          <mxGeometry x="87.75" y="170" width="47.5" height="50" as="geometry" />
        </mxCell>
        <mxCell id="q3nNFvrmssY_wy4M-QBo-78" value="" style="fontColor=#0066CC;verticalAlign=top;verticalLabelPosition=bottom;labelPosition=center;align=center;html=1;outlineConnect=0;fillColor=#CCCCCC;strokeColor=#6881B3;gradientColor=none;gradientDirection=north;strokeWidth=2;shape=mxgraph.networks.community;" vertex="1" parent="1">
          <mxGeometry x="87.75" y="230" width="47.5" height="50" as="geometry" />
        </mxCell>
        <mxCell id="q3nNFvrmssY_wy4M-QBo-79" value="" style="fontColor=#0066CC;verticalAlign=top;verticalLabelPosition=bottom;labelPosition=center;align=center;html=1;outlineConnect=0;fillColor=#CCCCCC;strokeColor=#6881B3;gradientColor=none;gradientDirection=north;strokeWidth=2;shape=mxgraph.networks.community;" vertex="1" parent="1">
          <mxGeometry x="87.75" y="300" width="47.5" height="50" as="geometry" />
        </mxCell>
        <mxCell id="q3nNFvrmssY_wy4M-QBo-80" value="" style="shape=mxgraph.cisco.security.firewall;html=1;pointerEvents=1;dashed=0;fillColor=#036897;strokeColor=#ffffff;strokeWidth=2;verticalLabelPosition=bottom;verticalAlign=top;align=center;outlineConnect=0;" vertex="1" parent="1">
          <mxGeometry x="152.69" y="235" width="17.31" height="40" as="geometry" />
        </mxCell>
        <mxCell id="q3nNFvrmssY_wy4M-QBo-81" value="" style="shape=mxgraph.cisco.security.firewall;html=1;pointerEvents=1;dashed=0;fillColor=#036897;strokeColor=#ffffff;strokeWidth=2;verticalLabelPosition=bottom;verticalAlign=top;align=center;outlineConnect=0;" vertex="1" parent="1">
          <mxGeometry x="152.69" y="305" width="17.31" height="40" as="geometry" />
        </mxCell>
        <mxCell id="q3nNFvrmssY_wy4M-QBo-83" value="" style="html=1;outlineConnect=0;fillColor=#CCCCCC;strokeColor=#6881B3;gradientColor=none;gradientDirection=north;strokeWidth=2;shape=mxgraph.networks.comm_link_edge;html=1;endArrow=none;endFill=0;" edge="1" parent="1" target="q3nNFvrmssY_wy4M-QBo-3">
          <mxGeometry width="100" height="100" relative="1" as="geometry">
            <mxPoint x="180" y="260" as="sourcePoint" />
            <mxPoint x="270" y="110" as="targetPoint" />
          </mxGeometry>
        </mxCell>
        <mxCell id="q3nNFvrmssY_wy4M-QBo-85" value="工厂、研究院" style="text;html=1;align=center;verticalAlign=middle;resizable=0;points=[];autosize=1;" vertex="1" parent="1">
          <mxGeometry x="82.06" y="370" width="90" height="20" as="geometry" />
        </mxCell>
        <mxCell id="q3nNFvrmssY_wy4M-QBo-86" value="生产区" style="text;html=1;align=center;verticalAlign=middle;resizable=0;points=[];autosize=1;" vertex="1" parent="1">
          <mxGeometry x="83" y="790" width="50" height="20" as="geometry" />
        </mxCell>
        <mxCell id="q3nNFvrmssY_wy4M-QBo-87" value="开发测试区" style="text;html=1;align=center;verticalAlign=middle;resizable=0;points=[];autosize=1;" vertex="1" parent="1">
          <mxGeometry x="210.51999999999998" y="790" width="80" height="20" as="geometry" />
        </mxCell>
        <mxCell id="q3nNFvrmssY_wy4M-QBo-88" value="办公区" style="text;html=1;align=center;verticalAlign=middle;resizable=0;points=[];autosize=1;" vertex="1" parent="1">
          <mxGeometry x="382" y="790" width="50" height="20" as="geometry" />
        </mxCell>
        <mxCell id="q3nNFvrmssY_wy4M-QBo-89" value="研发办公区" style="text;html=1;align=center;verticalAlign=middle;resizable=0;points=[];autosize=1;" vertex="1" parent="1">
          <mxGeometry x="569.57" y="775" width="80" height="20" as="geometry" />
        </mxCell>
        <mxCell id="q3nNFvrmssY_wy4M-QBo-90" value="无线接入区" style="text;html=1;align=center;verticalAlign=middle;resizable=0;points=[];autosize=1;" vertex="1" parent="1">
          <mxGeometry x="600.02" y="620" width="80" height="20" as="geometry" />
        </mxCell>
        <mxCell id="q3nNFvrmssY_wy4M-QBo-91" value="无线控制器" style="text;html=1;align=center;verticalAlign=middle;resizable=0;points=[];autosize=1;" vertex="1" parent="1">
          <mxGeometry x="671" y="482" width="80" height="20" as="geometry" />
        </mxCell>
        <mxCell id="q3nNFvrmssY_wy4M-QBo-92" value="防火墙" style="text;html=1;align=center;verticalAlign=middle;resizable=0;points=[];autosize=1;" vertex="1" parent="1">
          <mxGeometry x="425" y="300" width="50" height="20" as="geometry" />
        </mxCell>
        <mxCell id="q3nNFvrmssY_wy4M-QBo-93" value="上网行为管理" style="text;html=1;align=center;verticalAlign=middle;resizable=0;points=[];autosize=1;" vertex="1" parent="1">
          <mxGeometry x="430" y="390" width="90" height="20" as="geometry" />
        </mxCell>
        <mxCell id="q3nNFvrmssY_wy4M-QBo-94" value="核心交换机" style="text;html=1;align=center;verticalAlign=middle;resizable=0;points=[];autosize=1;" vertex="1" parent="1">
          <mxGeometry x="441" y="460" width="80" height="20" as="geometry" />
        </mxCell>
        <mxCell id="q3nNFvrmssY_wy4M-QBo-95" value="路由器" style="text;html=1;align=center;verticalAlign=middle;resizable=0;points=[];autosize=1;" vertex="1" parent="1">
          <mxGeometry x="419" y="210" width="50" height="20" as="geometry" />
        </mxCell>
        <mxCell id="q3nNFvrmssY_wy4M-QBo-96" value="VPN、专线" style="text;html=1;align=center;verticalAlign=middle;resizable=0;points=[];autosize=1;" vertex="1" parent="1">
          <mxGeometry x="200" y="260" width="80" height="20" as="geometry" />
        </mxCell>
        <mxCell id="q3nNFvrmssY_wy4M-QBo-97" value="Internet" style="text;html=1;align=center;verticalAlign=middle;resizable=0;points=[];autosize=1;" vertex="1" parent="1">
          <mxGeometry x="451" y="120" width="60" height="20" as="geometry" />
        </mxCell>
      </root>
    </mxGraphModel>
  </diagram>
</mxfile>
